<svg width="25.000000" height="21.250488" viewBox="0 0 25 21.2505" fill="none" xmlns="http://www.w3.org/2000/svg" xmlns:xlink="http://www.w3.org/1999/xlink">
	<desc>
			Created with Pixso.
	</desc>
	<defs/>
	<path id="Vector" d="M15 11.87L13.75 11.87L13.75 10.62C13.75 10.29 13.61 9.97 13.38 9.74C13.14 9.5 12.83 9.37 12.5 9.37C12.16 9.37 11.85 9.5 11.61 9.74C11.38 9.97 11.25 10.29 11.25 10.62L11.25 11.87L10 11.87C9.66 11.87 9.35 12 9.11 12.24C8.88 12.47 8.75 12.79 8.75 13.12C8.75 13.45 8.88 13.77 9.11 14C9.35 14.24 9.66 14.37 10 14.37L11.25 14.37L11.25 15.62C11.25 15.95 11.38 16.27 11.61 16.5C11.85 16.74 12.16 16.87 12.5 16.87C12.83 16.87 13.14 16.74 13.38 16.5C13.61 16.27 13.75 15.95 13.75 15.62L13.75 14.37L15 14.37C15.33 14.37 15.64 14.24 15.88 14C16.11 13.77 16.25 13.45 16.25 13.12C16.25 12.79 16.11 12.47 15.88 12.24C15.64 12 15.33 11.87 15 11.87Z" fill="#FFFFFF" fill-opacity="0.380000" fill-rule="nonzero"/>
	<path id="Vector" d="M21.87 4.43L13.12 4.43L9.83 0.46C9.72 0.31 9.57 0.2 9.4 0.12C9.24 0.04 9.05 0 8.87 0L3.12 0C2.3 -0.01 1.52 0.3 0.93 0.87C0.34 1.44 0.01 2.22 0 3.03L0 18.21C0.01 19.02 0.34 19.8 0.93 20.37C1.52 20.94 2.3 21.26 3.12 21.25L21.87 21.25C22.69 21.26 23.47 20.94 24.06 20.37C24.65 19.8 24.98 19.02 25 18.21L25 7.47C24.98 6.65 24.65 5.88 24.06 5.31C23.47 4.74 22.69 4.42 21.87 4.43ZM22.5 18.18C22.49 18.26 22.47 18.33 22.44 18.4C22.4 18.47 22.35 18.53 22.3 18.58C22.24 18.63 22.17 18.67 22.1 18.7C22.02 18.72 21.95 18.73 21.87 18.72L3.12 18.72C3.04 18.73 2.97 18.72 2.89 18.7C2.82 18.67 2.75 18.63 2.69 18.58C2.64 18.53 2.59 18.47 2.55 18.4C2.52 18.33 2.5 18.26 2.5 18.18L2.5 3.03C2.5 2.96 2.52 2.88 2.55 2.81C2.59 2.74 2.64 2.68 2.69 2.63C2.75 2.58 2.82 2.54 2.89 2.52C2.97 2.5 3.04 2.49 3.12 2.5L8.28 2.5L11.53 6.47C11.65 6.61 11.8 6.73 11.96 6.81C12.13 6.89 12.31 6.93 12.5 6.93L21.87 6.93C21.95 6.93 22.02 6.93 22.1 6.96C22.17 6.98 22.24 7.02 22.3 7.07C22.35 7.12 22.4 7.18 22.44 7.25C22.47 7.32 22.49 7.39 22.5 7.47L22.5 18.18Z" fill="#FFFFFF" fill-opacity="0.380000" fill-rule="nonzero"/>
</svg>
