<svg width="194.000000" height="49.000000" viewBox="0 0 194 49" fill="none" xmlns="http://www.w3.org/2000/svg" xmlns:xlink="http://www.w3.org/1999/xlink">
	<desc>
			Created with Pixso.
	</desc>
	<defs>
		<clipPath id="clip43_18">
			<rect id="logos:slack" width="194.000000" height="49.000000" fill="white" fill-opacity="0"/>
		</clipPath>
	</defs>
	<rect id="logos:slack" width="194.000000" height="49.000000" fill="#FFFFFF" fill-opacity="0"/>
	<g clip-path="url(#clip43_18)">
		<path id="Vector" d="M61.98 38.4L64.4 32.81C67.02 34.75 70.49 35.76 73.93 35.76C76.46 35.76 78.06 34.79 78.06 33.31C78.02 29.2 62.88 32.42 62.76 22.09C62.72 16.85 67.41 12.81 74.04 12.81C77.99 12.81 81.93 13.78 84.74 15.99L82.47 21.7C79.9 20.07 76.7 18.91 73.65 18.91C71.58 18.91 70.22 19.88 70.22 21.12C70.26 25.16 85.52 22.94 85.68 32.81C85.68 38.16 81.11 41.93 74.55 41.93C69.75 41.93 65.34 40.81 61.98 38.4ZM154.84 30.79L161.52 34.48C159.02 38.94 154.26 41.93 148.75 41.93C140.67 41.93 134.12 35.41 134.12 27.37C134.12 19.33 140.67 12.81 148.75 12.81C154.22 12.81 159.02 15.84 161.52 20.26L154.84 23.95C153.63 21.86 151.37 20.42 148.75 20.42C144.89 20.42 141.77 23.53 141.77 27.37C141.77 31.21 144.89 34.32 148.75 34.32C151.37 34.32 153.63 32.88 154.84 30.79L154.84 30.79ZM89.03 0.73L97.39 0.73L97.39 41.39L89.03 41.39L89.03 0.73ZM164.8 0.73L173.15 0.73L173.15 24.61L182.6 13.39L192.82 13.39L181.15 26.9L193.76 41.39L183.07 41.39L173.15 29.2L173.15 41.39L164.8 41.39L164.8 0.73ZM122.21 30.86L122.21 23.99C121 21.97 118.5 20.42 115.69 20.42C111.83 20.42 108.71 23.53 108.71 27.37C108.71 31.21 111.83 34.32 115.69 34.32C118.5 34.32 121 32.84 122.21 30.86L122.21 30.86ZM122.21 13.39L130.57 13.39L130.57 41.35L122.21 41.35L122.21 38.05C120.85 40.34 117.45 41.93 113.9 41.93C106.56 41.93 100.78 35.41 100.78 27.33C100.78 19.25 106.56 12.81 113.9 12.81C117.45 12.81 120.85 14.4 122.21 16.69L122.21 13.39L122.21 13.39Z" fill="#FFFFFF" fill-opacity="0.200000" fill-rule="nonzero"/>
		<path id="Vector" d="M10.34 30.83C10.34 33.66 8.04 35.95 5.19 35.95C4.51 35.95 3.84 35.82 3.21 35.56C2.59 35.31 2.02 34.93 1.54 34.45C1.06 33.98 0.68 33.41 0.42 32.79C0.17 32.17 0.03 31.5 0.03 30.83C0.03 27.99 2.34 25.7 5.19 25.7L10.34 25.7L10.34 30.83ZM12.92 30.83C12.92 27.99 15.22 25.7 18.07 25.7C20.92 25.7 23.22 27.99 23.22 30.83L23.22 43.64C23.22 46.47 20.92 48.77 18.07 48.77C17.39 48.77 16.72 48.63 16.1 48.38C15.47 48.12 14.9 47.74 14.42 47.27C13.94 46.79 13.57 46.22 13.31 45.6C13.05 44.98 12.92 44.31 12.92 43.64L12.92 30.83L12.92 30.83Z" fill="#FFFFFF" fill-opacity="0.200000" fill-rule="nonzero"/>
		<path id="Vector" d="M18.07 10.25C17.39 10.25 16.72 10.11 16.1 9.86C15.47 9.6 14.9 9.22 14.42 8.75C13.94 8.27 13.57 7.7 13.31 7.08C13.05 6.46 12.92 5.79 12.92 5.12C12.92 2.29 15.22 0 18.07 0C20.92 0 23.22 2.29 23.22 5.12L23.22 10.25L18.07 10.25ZM18.07 12.85C20.92 12.85 23.22 15.14 23.22 17.97C23.22 20.81 20.92 23.1 18.07 23.1L5.15 23.1C4.47 23.1 3.8 22.97 3.17 22.71C2.55 22.45 1.98 22.08 1.5 21.6C1.02 21.12 0.64 20.56 0.39 19.94C0.13 19.31 -0.01 18.65 0 17.97C0 15.14 2.3 12.85 5.15 12.85L18.07 12.85L18.07 12.85Z" fill="#FFFFFF" fill-opacity="0.200000" fill-rule="nonzero"/>
		<path id="Vector" d="M38.72 17.97C38.72 15.14 41.02 12.85 43.87 12.85C46.72 12.85 49.02 15.14 49.02 17.97C49.02 20.81 46.72 23.1 43.87 23.1L38.72 23.1L38.72 17.97ZM36.14 17.97C36.14 20.81 33.84 23.1 30.99 23.1C30.31 23.1 29.64 22.97 29.02 22.71C28.39 22.45 27.82 22.08 27.34 21.6C26.86 21.12 26.49 20.56 26.23 19.94C25.97 19.31 25.83 18.65 25.84 17.97L25.84 5.12C25.84 2.29 28.14 0 30.99 0C33.84 0 36.14 2.29 36.14 5.12L36.14 17.97L36.14 17.97Z" fill="#FFFFFF" fill-opacity="0.200000" fill-rule="nonzero"/>
		<path id="Vector" d="M30.99 38.51C33.84 38.51 36.14 40.81 36.14 43.64C36.14 46.47 33.84 48.77 30.99 48.77C30.31 48.77 29.64 48.63 29.02 48.38C28.39 48.12 27.82 47.74 27.34 47.27C26.86 46.79 26.49 46.22 26.23 45.6C25.97 44.98 25.83 44.31 25.84 43.64L25.84 38.51L30.99 38.51ZM30.99 35.95C30.31 35.95 29.64 35.82 29.02 35.56C28.39 35.3 27.82 34.93 27.34 34.45C26.86 33.98 26.49 33.41 26.23 32.79C25.97 32.17 25.84 31.5 25.84 30.83C25.84 27.99 28.14 25.7 30.99 25.7L43.91 25.7C46.76 25.7 49.06 27.99 49.06 30.83C49.06 33.66 46.76 35.95 43.91 35.95L30.99 35.95L30.99 35.95Z" fill="#FFFFFF" fill-opacity="0.200000" fill-rule="nonzero"/>
	</g>
</svg>
