<svg width="193.000000" height="42.000000" viewBox="0 0 193 42" fill="none" xmlns="http://www.w3.org/2000/svg" xmlns:xlink="http://www.w3.org/1999/xlink">
	<desc>
			Created with Pixso.
	</desc>
	<defs>
		<clipPath id="clip43_12">
			<rect id="logos:microsoft" width="193.000000" height="42.000000" fill="white" fill-opacity="0"/>
		</clipPath>
	</defs>
	<rect id="logos:microsoft" width="193.000000" height="42.000000" fill="#FFFFFF" fill-opacity="0"/>
	<g clip-path="url(#clip43_12)">
		<path id="Vector" d="M192.95 18.87L192.95 15.43L188.73 15.43L188.73 10.09L188.59 10.13L184.63 11.36L184.56 11.39L184.56 15.43L178.31 15.43L178.31 13.18C178.31 12.13 178.54 11.32 179 10.79C179.45 10.26 180.1 9.99 180.93 9.99C181.52 9.99 182.14 10.13 182.76 10.41L182.92 10.48L182.92 6.86L182.84 6.84C182.26 6.62 181.48 6.52 180.5 6.52C179.27 6.52 178.16 6.79 177.18 7.33C176.21 7.86 175.44 8.63 174.9 9.61C174.37 10.58 174.1 11.71 174.1 12.95L174.1 15.43L171.16 15.43L171.16 18.87L174.1 18.87L174.1 33.35L178.31 33.35L178.31 18.87L184.56 18.87L184.56 28.07C184.56 31.86 186.32 33.78 189.8 33.78C190.37 33.78 190.98 33.72 191.59 33.58C192.22 33.45 192.64 33.31 192.89 33.16L192.95 33.13L192.95 29.66L192.78 29.78C192.55 29.93 192.26 30.06 191.93 30.15C191.59 30.25 191.31 30.29 191.1 30.29C190.28 30.29 189.68 30.07 189.3 29.63C188.93 29.19 188.73 28.41 188.73 27.33L188.73 18.87L192.95 18.87ZM161.75 30.29C160.23 30.29 159.02 29.78 158.17 28.77C157.32 27.75 156.88 26.3 156.88 24.46C156.88 22.56 157.32 21.07 158.17 20.04C159.02 19.01 160.22 18.49 161.72 18.49C163.18 18.49 164.35 18.99 165.18 19.97C166.01 20.96 166.44 22.44 166.44 24.36C166.44 26.3 166.04 27.8 165.25 28.8C164.47 29.79 163.29 30.29 161.75 30.29ZM161.94 15C159.03 15 156.71 15.87 155.06 17.58C153.41 19.28 152.57 21.65 152.57 24.6C152.57 27.4 153.39 29.66 155 31.3C156.61 32.95 158.8 33.78 161.52 33.78C164.34 33.78 166.62 32.9 168.27 31.17C169.92 29.44 170.75 27.1 170.75 24.22C170.75 21.37 169.97 19.1 168.42 17.46C166.87 15.83 164.69 15 161.94 15ZM145.78 15C143.79 15 142.15 15.52 140.9 16.53C139.64 17.55 139 18.89 139 20.5C139 21.35 139.14 22.09 139.41 22.73C139.68 23.36 140.11 23.92 140.67 24.39C141.23 24.86 142.09 25.35 143.23 25.84C144.19 26.24 144.9 26.58 145.36 26.85C145.8 27.11 146.12 27.37 146.29 27.63C146.47 27.88 146.56 28.22 146.56 28.64C146.56 29.85 145.67 30.43 143.83 30.43C143.16 30.43 142.38 30.29 141.53 30.01C140.69 29.73 139.89 29.32 139.17 28.79L139 28.67L139 32.77L139.06 32.81C139.66 33.08 140.41 33.32 141.3 33.5C142.18 33.69 142.98 33.78 143.68 33.78C145.83 33.78 147.57 33.27 148.83 32.25C150.11 31.22 150.75 29.85 150.75 28.18C150.75 26.97 150.4 25.93 149.72 25.1C149.04 24.27 147.86 23.51 146.21 22.84C144.9 22.3 144.06 21.86 143.71 21.52C143.38 21.19 143.21 20.73 143.21 20.14C143.21 19.62 143.42 19.2 143.85 18.86C144.28 18.53 144.89 18.35 145.64 18.35C146.34 18.35 147.06 18.46 147.78 18.68C148.49 18.9 149.12 19.2 149.64 19.56L149.81 19.68L149.81 15.78L149.75 15.75C149.26 15.54 148.63 15.36 147.85 15.22C147.08 15.08 146.39 15 145.78 15ZM128.02 30.29C126.49 30.29 125.28 29.78 124.43 28.77C123.58 27.75 123.15 26.3 123.15 24.46C123.15 22.56 123.58 21.07 124.43 20.04C125.28 19.01 126.48 18.49 127.98 18.49C129.44 18.49 130.61 18.99 131.44 19.97C132.28 20.96 132.7 22.44 132.7 24.36C132.7 26.3 132.3 27.8 131.51 28.8C130.73 29.79 129.56 30.29 128.02 30.29L128.02 30.29ZM128.21 15C125.29 15 122.97 15.87 121.32 17.58C119.67 19.28 118.83 21.65 118.83 24.6C118.83 27.41 119.65 29.66 121.26 31.3C122.87 32.95 125.07 33.78 127.78 33.78C130.61 33.78 132.88 32.9 134.53 31.17C136.18 29.44 137.02 27.1 137.02 24.22C137.02 21.37 136.23 19.1 134.68 17.46C133.13 15.83 130.95 15 128.21 15L128.21 15ZM112.44 18.54L112.44 15.43L108.28 15.43L108.28 33.35L112.44 33.35L112.44 24.19C112.44 22.63 112.79 21.35 113.47 20.38C114.15 19.42 115.06 18.94 116.17 18.94C116.54 18.94 116.96 19 117.42 19.13C117.87 19.25 118.19 19.38 118.39 19.52L118.56 19.65L118.56 15.4L118.49 15.37C118.11 15.21 117.56 15.12 116.86 15.12C115.82 15.12 114.88 15.46 114.08 16.13C113.38 16.72 112.87 17.53 112.48 18.54L112.44 18.54L112.44 18.54ZM100.83 15C98.92 15 97.21 15.42 95.76 16.23C94.31 17.05 93.19 18.22 92.43 19.71C91.67 21.19 91.28 22.93 91.28 24.86C91.28 26.55 91.66 28.11 92.4 29.47C93.14 30.85 94.18 31.92 95.51 32.66C96.83 33.41 98.36 33.78 100.06 33.78C102.04 33.78 103.72 33.38 105.08 32.59L105.13 32.56L105.13 28.7L104.96 28.83C104.33 29.29 103.65 29.65 102.92 29.9C102.19 30.16 101.52 30.29 100.93 30.29C99.3 30.29 97.98 29.78 97.03 28.76C96.08 27.73 95.6 26.3 95.6 24.5C95.6 22.68 96.1 21.21 97.09 20.12C98.08 19.04 99.4 18.49 101 18.49C102.36 18.49 103.7 18.96 104.96 19.89L105.13 20.02L105.13 15.95L105.08 15.91C104.6 15.65 103.95 15.42 103.15 15.25C102.35 15.09 101.57 15 100.82 15L100.83 15ZM88.42 15.43L84.25 15.43L84.25 33.35L88.42 33.35L88.42 15.43L88.42 15.43ZM86.38 7.8C85.69 7.8 85.1 8.04 84.6 8.51C84.11 8.97 83.86 9.57 83.86 10.26C83.86 10.95 84.11 11.53 84.6 11.99C85.08 12.44 85.68 12.67 86.38 12.67C87.07 12.67 87.68 12.44 88.17 11.99C88.66 11.53 88.91 10.95 88.91 10.26C88.91 9.59 88.67 9 88.19 8.52C87.71 8.04 87.1 7.8 86.38 7.8ZM76 14.11L76 33.35L80.24 33.35L80.24 8.35L74.37 8.35L66.9 26.92L59.65 8.35L53.53 8.35L53.53 33.35L57.52 33.35L57.52 14.11L57.66 14.11L65.31 33.35L68.32 33.35L75.86 14.11L76 14.11L76 14.11Z" fill="#FFFFFF" fill-opacity="0.200000" fill-rule="nonzero"/>
		<path id="Vector" d="M19.57 19.82L0 19.82L0 0L19.57 0L19.57 19.82Z" fill="#FFFFFF" fill-opacity="0.200000" fill-rule="nonzero"/>
		<path id="Vector" d="M41.18 19.82L21.61 19.82L21.61 0L41.18 0L41.18 19.82Z" fill="#FFFFFF" fill-opacity="0.200000" fill-rule="nonzero"/>
		<path id="Vector" d="M19.57 41.72L0 41.72L0 21.89L19.57 21.89L19.57 41.72Z" fill="#FFFFFF" fill-opacity="0.200000" fill-rule="nonzero"/>
		<path id="Vector" d="M41.18 41.72L21.61 41.72L21.61 21.89L41.18 21.89L41.18 41.72Z" fill="#FFFFFF" fill-opacity="0.200000" fill-rule="nonzero"/>
	</g>
</svg>
