<svg width="36.000000" height="36.000000" viewBox="0 0 36 36" fill="none" xmlns="http://www.w3.org/2000/svg" xmlns:xlink="http://www.w3.org/1999/xlink">
	<desc>
			Created with Pixso.
	</desc>
	<defs>
		<clipPath id="clip58_6">
			<rect id="bx:bxl-twitter" width="36.000000" height="36.000000" fill="white" fill-opacity="0"/>
		</clipPath>
	</defs>
	<rect id="bx:bxl-twitter" width="36.000000" height="36.000000" fill="#FFFFFF" fill-opacity="0"/>
	<g clip-path="url(#clip58_6)">
		<path id="Vector" d="M29.44 11.99C29.46 12.25 29.46 12.51 29.46 12.78C29.46 20.76 23.38 29.97 12.27 29.97C8.85 29.97 5.67 28.98 3 27.25C3.48 27.31 3.95 27.33 4.45 27.33C7.17 27.33 9.82 26.43 11.96 24.75C10.7 24.72 9.47 24.31 8.46 23.56C7.45 22.81 6.69 21.76 6.31 20.56C6.68 20.61 7.05 20.65 7.45 20.65C7.99 20.65 8.53 20.58 9.04 20.44C7.67 20.17 6.44 19.43 5.56 18.35C4.67 17.26 4.19 15.91 4.19 14.52L4.19 14.44C5 14.89 5.93 15.17 6.92 15.21C6.09 14.66 5.41 13.91 4.94 13.03C4.47 12.15 4.23 11.17 4.23 10.18C4.23 9.05 4.53 8.02 5.05 7.13C6.57 9 8.46 10.52 10.61 11.61C12.76 12.7 15.11 13.33 17.51 13.45C17.42 13 17.36 12.53 17.36 12.07C17.36 11.27 17.52 10.49 17.82 9.75C18.12 9.02 18.57 8.35 19.13 7.79C19.69 7.23 20.36 6.79 21.09 6.48C21.82 6.18 22.61 6.02 23.4 6.02C25.14 6.02 26.71 6.75 27.82 7.93C29.17 7.67 30.47 7.18 31.65 6.47C31.2 7.87 30.26 9.05 28.99 9.8C30.19 9.67 31.37 9.35 32.47 8.87C31.65 10.07 30.62 11.13 29.44 11.99Z" fill="#FFFFFF" fill-opacity="0.780000" fill-rule="nonzero"/>
	</g>
</svg>
