<svg width="194.000000" height="44.000000" viewBox="0 0 194 44" fill="none" xmlns="http://www.w3.org/2000/svg" xmlns:xlink="http://www.w3.org/1999/xlink">
	<desc>
			Created with Pixso.
	</desc>
	<defs>
		<clipPath id="clip43_31">
			<rect id="logos:wordpress" width="194.000000" height="44.000000" fill="white" fill-opacity="0"/>
		</clipPath>
	</defs>
	<rect id="logos:wordpress" width="194.000000" height="44.000000" fill="#FFFFFF" fill-opacity="0"/>
	<g clip-path="url(#clip43_31)">
		<path id="Vector" d="M112.51 17.19L104.87 17.19L104.87 18C107.26 18 107.65 18.5 107.65 21.51L107.65 26.93C107.65 29.94 107.26 30.49 104.87 30.49C103.04 30.23 101.8 29.26 100.1 27.4L98.13 25.28C100.78 24.81 102.19 23.16 102.19 21.3C102.19 18.97 100.18 17.19 96.43 17.19L88.92 17.19L88.92 18C91.31 18 91.69 18.5 91.69 21.51L91.69 26.93C91.69 29.94 91.31 30.49 88.92 30.49L88.92 31.29L97.41 31.29L97.41 30.49C95.02 30.49 94.64 29.94 94.64 26.93L94.64 25.41L95.36 25.41L100.1 31.29L112.51 31.29C118.61 31.29 121.26 28.07 121.26 24.22C121.26 20.37 118.61 17.19 112.51 17.19ZM94.64 24.09L94.64 18.46L96.38 18.46C98.3 18.46 99.16 19.77 99.16 21.3C99.16 22.78 98.3 24.09 96.38 24.09L94.64 24.09ZM112.64 29.98L112.34 29.98C110.81 29.98 110.59 29.6 110.59 27.65L110.59 18.46L112.64 18.46C117.08 18.46 117.89 21.68 117.89 24.18C117.89 26.76 117.08 29.98 112.64 29.98ZM65.16 25.66L68.1 17.02C68.95 14.52 68.57 13.8 65.84 13.8L65.84 12.96L73.86 12.96L73.86 13.8C71.17 13.8 70.53 14.44 69.47 17.53L64.6 32.01L64.05 32.01L59.7 18.76L55.26 32.01L54.7 32.01L49.97 17.53C48.95 14.44 48.26 13.8 45.79 13.8L45.79 12.96L55.26 12.96L55.26 13.8C52.74 13.8 52.06 14.4 52.96 17.02L55.81 25.66L60.12 12.96L60.93 12.96L65.16 25.66ZM79.66 31.84C74.97 31.84 71.13 28.41 71.13 24.22C71.13 20.07 74.97 16.64 79.66 16.64C84.35 16.64 88.19 20.07 88.19 24.22C88.19 28.41 84.35 31.84 79.66 31.84ZM79.66 17.95C75.74 17.95 74.37 21.47 74.37 24.22C74.37 27.02 75.74 30.49 79.66 30.49C83.63 30.49 84.99 27.02 84.99 24.22C84.99 21.47 83.63 17.95 79.66 17.95Z" fill="#FFFFFF" fill-opacity="0.200000" fill-rule="nonzero"/>
		<path id="Vector" d="M131.79 30.44L131.79 31.29L122.02 31.29L122.02 30.44C124.88 30.44 125.4 29.72 125.4 25.49L125.4 18.72C125.4 14.48 124.88 13.8 122.02 13.8L122.02 12.96L130.86 12.96C135.25 12.96 137.68 15.2 137.68 18.21C137.68 21.13 135.25 23.42 130.86 23.42L128.42 23.42L128.42 25.49C128.42 29.72 128.94 30.44 131.79 30.44ZM130.86 14.48L128.42 14.48L128.42 21.85L130.86 21.85C133.25 21.85 134.35 20.2 134.35 18.21C134.35 16.18 133.25 14.48 130.86 14.48ZM166.99 27.31L166.78 28.07C166.39 29.47 165.92 29.98 162.89 29.98L162.3 29.98C160.08 29.98 159.69 29.47 159.69 26.46L159.69 24.52C163.02 24.52 163.28 24.81 163.28 27.02L164.09 27.02L164.09 20.71L163.28 20.71C163.28 22.91 163.02 23.2 159.69 23.2L159.69 18.46L162.04 18.46C165.07 18.46 165.54 18.97 165.92 20.37L166.14 21.17L166.82 21.17L166.52 17.19L153.98 17.19L153.98 17.99C156.37 17.99 156.75 18.5 156.75 21.51L156.75 26.93C156.75 29.68 156.42 30.37 154.54 30.47C152.75 30.2 151.52 29.23 149.84 27.4L147.88 25.28C150.52 24.81 151.93 23.16 151.93 21.3C151.93 18.97 149.92 17.19 146.17 17.19L138.66 17.19L138.66 17.99C141.05 17.99 141.44 18.5 141.44 21.51L141.44 26.93C141.44 29.94 141.05 30.49 138.66 30.49L138.66 31.29L147.15 31.29L147.15 30.49C144.76 30.49 144.38 29.94 144.38 26.93L144.38 25.41L145.11 25.41L149.84 31.29L167.37 31.29L167.63 27.31L166.99 27.31L166.99 27.31ZM144.38 24.09L144.38 18.46L146.13 18.46C148.05 18.46 148.9 19.77 148.9 21.3C148.9 22.78 148.05 24.09 146.13 24.09L144.38 24.09ZM175.65 31.84C173.94 31.84 172.45 30.95 171.81 30.4C171.6 30.61 171.21 31.25 171.13 31.84L170.32 31.84L170.32 26L171.17 26C171.51 28.79 173.47 30.44 175.99 30.44C177.36 30.44 178.47 29.68 178.47 28.41C178.47 27.31 177.49 26.46 175.74 25.66L173.3 24.52C171.6 23.71 170.32 22.31 170.32 20.45C170.32 18.42 172.24 16.68 174.88 16.68C176.29 16.68 177.48 17.19 178.21 17.78C178.42 17.61 178.64 17.15 178.77 16.64L179.58 16.64L179.58 21.64L178.68 21.64C178.38 19.65 177.27 18 175.01 18C173.82 18 172.71 18.67 172.71 19.73C172.71 20.83 173.6 21.43 175.65 22.36L178 23.5C180.05 24.47 180.86 26.04 180.86 27.31C180.86 29.98 178.51 31.84 175.65 31.84L175.65 31.84ZM188.79 31.84C187.08 31.84 185.59 30.95 184.95 30.4C184.74 30.61 184.35 31.25 184.27 31.84L183.46 31.84L183.46 26L184.31 26C184.65 28.79 186.61 30.44 189.13 30.44C190.5 30.44 191.61 29.68 191.61 28.41C191.61 27.31 190.63 26.46 188.88 25.66L186.44 24.52C184.74 23.71 183.46 22.31 183.46 20.45C183.46 18.42 185.38 16.68 188.02 16.68C189.43 16.68 190.62 17.19 191.35 17.78C191.56 17.61 191.78 17.15 191.9 16.64L192.72 16.64L192.72 21.64L191.82 21.64C191.52 19.65 190.41 18 188.15 18C186.96 18 185.85 18.67 185.85 19.73C185.85 20.83 186.74 21.43 188.79 22.36L191.14 23.5C193.18 24.47 193.99 26.04 193.99 27.31C193.99 29.98 191.65 31.84 188.79 31.84L188.79 31.84Z" fill="#FFFFFF" fill-opacity="0.200000" fill-rule="nonzero"/>
		<path id="Vector" d="M3.12 21.84C3.12 29.26 7.47 35.67 13.76 38.7L4.76 14.21C3.68 16.61 3.12 19.21 3.12 21.84L3.12 21.84ZM34.75 20.89C34.75 18.58 33.91 16.97 33.19 15.72C32.24 14.18 31.34 12.87 31.34 11.33C31.34 9.61 32.65 8 34.51 8C34.59 8 34.67 8.01 34.75 8.02C31.39 4.96 26.92 3.1 22 3.1C15.41 3.1 9.6 6.46 6.23 11.55C6.67 11.56 7.09 11.57 7.44 11.57C9.42 11.57 12.48 11.33 12.48 11.33C13.49 11.27 13.61 12.76 12.6 12.87C12.6 12.87 11.57 12.99 10.44 13.05L17.31 33.35L21.44 21.05L18.5 13.05C17.48 12.99 16.52 12.87 16.52 12.87C15.5 12.81 15.62 11.27 16.64 11.33C16.64 11.33 19.76 11.57 21.61 11.57C23.59 11.57 26.65 11.33 26.65 11.33C27.66 11.27 27.78 12.75 26.77 12.87C26.77 12.87 25.74 12.99 24.61 13.05L31.43 33.2L33.31 26.95C34.13 24.36 34.75 22.5 34.75 20.89ZM22.33 23.48L16.67 39.82C18.4 40.32 20.2 40.58 22 40.58C24.14 40.58 26.26 40.22 28.27 39.52C28.22 39.43 28.18 39.35 28.14 39.26L22.33 23.48ZM38.57 12.85C38.65 13.44 38.7 14.09 38.7 14.77C38.7 16.68 38.34 18.81 37.26 21.49L31.5 38.04C37.11 34.79 40.88 28.75 40.88 21.84C40.88 18.58 40.05 15.52 38.57 12.85ZM22 0C9.87 0 0 9.79 0 21.84C0 33.88 9.87 43.68 22 43.68C34.14 43.68 44.01 33.88 44.01 21.84C44.01 9.79 34.14 0 22 0ZM22 42.68C10.43 42.68 1 33.33 1 21.84C1 10.35 10.42 1 22 1C33.58 1 43 10.35 43 21.84C43 33.33 33.58 42.68 22 42.68Z" fill="#FFFFFF" fill-opacity="0.200000" fill-rule="nonzero"/>
	</g>
</svg>
