<svg width="64.000000" height="64.000000" viewBox="0 0 64 64" fill="none" xmlns="http://www.w3.org/2000/svg" xmlns:xlink="http://www.w3.org/1999/xlink">
	<desc>
			Created with Pixso.
	</desc>
	<defs>
		<clipPath id="clip50_171">
			<rect id="zeplin" width="64.000000" height="64.000000" fill="white" fill-opacity="0"/>
		</clipPath>
	</defs>
	<g opacity="0.780000">
		<rect id="zeplin" width="64.000000" height="64.000000" fill="#FFFFFF" fill-opacity="0"/>
		<g clip-path="url(#clip50_171)">
			<path id="vector" d="M12.63 40.33L9.7 41.38L9.54 49.95L19.68 46.31C16.2 45.16 13.66 43.14 12.63 40.33Z" fill="#FDBD39" fill-opacity="1.000000" fill-rule="evenodd"/>
			<path id="vector" d="M14.16 31.27L4 34.92L9.7 41.38L12.63 40.33C11.59 37.53 12.23 34.37 14.16 31.27Z" fill="#F69833" fill-opacity="1.000000" fill-rule="evenodd"/>
			<path id="vector" d="M31.26 18.91C18.32 23.56 9.98 33.15 12.63 40.33L59.5 23.5C56.85 16.32 44.21 14.26 31.26 18.91Z" fill="#FECF33" fill-opacity="1.000000" fill-rule="evenodd"/>
			<path id="vector" d="M40.86 44.92C53.8 40.27 62.17 30.73 59.5 23.5L12.63 40.33C15.29 47.56 27.92 49.57 40.86 44.92Z" fill="#EE6723" fill-opacity="1.000000" fill-rule="evenodd"/>
			<path id="vector" d="M59.5 23.5L12.63 40.33C13.54 42.82 17.04 44.05 21.96 44.05C26.74 44.05 32.87 42.88 39.26 40.59C52.21 35.94 61.31 28.41 59.5 23.5Z" fill="#F69833" fill-opacity="1.000000" fill-rule="evenodd"/>
			<path id="vector" d="M50.17 19.79C45.38 19.79 39.25 20.95 32.86 23.25C19.92 27.89 10.81 35.42 12.63 40.33L59.5 23.5C58.58 21.01 55.08 19.79 50.17 19.79Z" fill="#FDBD39" fill-opacity="1.000000" fill-rule="evenodd"/>
			<path id="vector" d="M47.58 50.4L47.58 50.4C46.2 50.4 44.17 49.18 41.53 46.76C38.42 43.91 34.85 39.72 31.48 34.98C28.12 30.24 25.35 25.5 23.7 21.63C21.9 17.42 21.64 14.83 22.93 13.94C23.22 13.74 23.56 13.64 23.95 13.64C25.01 13.64 27.06 14.41 30.86 18.09L30.95 18.17L30.94 18.28C30.91 18.55 30.89 18.82 30.86 19.08L30.82 19.6L30.45 19.23C26.35 15.17 24.55 14.73 23.97 14.73C23.8 14.73 23.67 14.77 23.57 14.83C23.01 15.22 22.97 17.12 24.72 21.21C26.35 25.01 29.07 29.67 32.39 34.35C35.72 39.03 39.23 43.16 42.29 45.96C45.59 48.99 47.08 49.31 47.56 49.31C47.73 49.31 47.87 49.28 47.97 49.21C48.56 48.8 48.56 46.76 46.61 42.37L46.52 42.16L46.72 42.06C46.91 41.95 47.1 41.85 47.28 41.75L47.52 41.62L47.63 41.86C49.01 44.98 50.3 48.94 48.61 50.11C48.32 50.3 47.98 50.4 47.58 50.4ZM47.58 49.92L47.58 49.92L47.58 50.16L47.58 49.92Z" fill="#EE6723" fill-opacity="1.000000" fill-rule="evenodd"/>
			<path id="vector" d="M41.18 44.79L41.16 45.03C40.83 49.01 39.97 53.8 37.72 53.99C37.68 53.99 37.63 54 37.58 54C36.06 54 34.61 51.85 33.29 47.61C32.04 43.6 31.07 38.21 30.56 32.44C30.05 26.68 30.05 21.21 30.58 17.05C31.15 12.51 32.24 10.14 33.82 10C33.87 10 33.91 10 33.96 10C35.07 10 36.74 11.23 38.45 16.97L37.33 17.18C36.76 15.26 36.14 13.7 35.52 12.63C34.95 11.64 34.4 11.09 33.96 11.09C33.94 11.09 33.93 11.09 33.92 11.09C33.23 11.15 32.24 12.78 31.68 17.18C31.17 21.27 31.16 26.66 31.66 32.35C32.17 38.04 33.12 43.35 34.35 47.28C34.9 49.05 35.5 50.5 36.1 51.49C36.64 52.4 37.17 52.9 37.58 52.9C37.6 52.9 37.61 52.9 37.62 52.9C38.28 52.84 39.51 51.15 40.03 45.18L41.18 44.79Z" fill="#EE6723" fill-opacity="1.000000" fill-rule="evenodd"/>
		</g>
	</g>
</svg>
