<svg width="157.000000" height="51.000000" viewBox="0 0 157 51" fill="none" xmlns="http://www.w3.org/2000/svg" xmlns:xlink="http://www.w3.org/1999/xlink">
	<desc>
			Created with Pixso.
	</desc>
	<defs>
		<clipPath id="clip43_24">
			<rect id="logos:google" width="157.000000" height="51.000000" fill="white" fill-opacity="0"/>
		</clipPath>
	</defs>
	<rect id="logos:google" width="157.000000" height="51.000000" fill="#FFFFFF" fill-opacity="0"/>
	<g clip-path="url(#clip43_24)">
		<path id="Vector" d="M152.11 31.16L156.46 34.04C155.05 36.1 151.67 39.64 145.82 39.64C138.56 39.64 133.16 34.08 133.16 27C133.16 19.48 138.62 14.37 145.21 14.37C151.84 14.37 155.09 19.59 156.14 22.41L156.71 23.84L139.63 30.84C140.93 33.38 142.96 34.66 145.82 34.66C148.69 34.66 150.67 33.26 152.11 31.16ZM138.72 26.61L150.12 21.92C149.49 20.35 147.62 19.23 145.38 19.23C142.53 19.23 138.58 21.73 138.72 26.61Z" fill="#FFFFFF" fill-opacity="0.200000" fill-rule="nonzero"/>
		<path id="Vector" d="M124.92 1.49L130.42 1.49L130.42 38.48L124.92 38.48L124.92 1.49L124.92 1.49Z" fill="#FFFFFF" fill-opacity="0.200000" fill-rule="nonzero"/>
		<path id="Vector" d="M116.25 15.35L121.56 15.35L121.56 37.82C121.56 47.14 116 50.98 109.43 50.98C103.24 50.98 99.52 46.86 98.12 43.51L102.99 41.51C103.87 43.57 105.99 46.01 109.43 46.01C113.65 46.01 116.25 43.42 116.25 38.58L116.25 36.76L116.06 36.76C114.8 38.27 112.39 39.64 109.34 39.64C102.96 39.64 97.11 34.13 97.11 27.04C97.11 19.91 102.96 14.35 109.34 14.35C112.37 14.35 114.8 15.69 116.06 17.17L116.25 17.17L116.25 15.35L116.25 15.35ZM116.63 27.04C116.63 22.58 113.63 19.32 109.81 19.32C105.95 19.32 102.71 22.58 102.71 27.04C102.71 31.45 105.95 34.64 109.81 34.64C113.63 34.66 116.63 31.45 116.63 27.04L116.63 27.04Z" fill="#FFFFFF" fill-opacity="0.200000" fill-rule="nonzero"/>
		<path id="Vector" d="M66.91 26.95C66.91 34.23 61.18 39.58 54.15 39.58C47.12 39.58 41.39 34.21 41.39 26.95C41.39 19.63 47.12 14.29 54.15 14.29C61.18 14.29 66.91 19.63 66.91 26.95ZM61.33 26.95C61.33 22.41 58.01 19.29 54.15 19.29C50.29 19.29 46.97 22.41 46.97 26.95C46.97 31.45 50.29 34.61 54.15 34.61C58.01 34.61 61.33 31.45 61.33 26.95Z" fill="#FFFFFF" fill-opacity="0.200000" fill-rule="nonzero"/>
		<path id="Vector" d="M94.78 27C94.78 34.28 89.05 39.64 82.02 39.64C74.99 39.64 69.26 34.28 69.26 27C69.26 19.68 74.99 14.37 82.02 14.37C89.05 14.37 94.78 19.67 94.78 27ZM89.18 27C89.18 22.46 85.86 19.34 82 19.34C78.14 19.34 74.82 22.46 74.82 27C74.82 31.5 78.14 34.66 82 34.66C85.88 34.66 89.18 31.48 89.18 27Z" fill="#FFFFFF" fill-opacity="0.200000" fill-rule="nonzero"/>
		<path id="Vector" d="M20.41 34.09C12.41 34.09 6.14 27.7 6.14 19.78C6.14 11.86 12.41 5.46 20.41 5.46C24.73 5.46 27.88 7.15 30.21 9.3L34.05 5.5C30.81 2.42 26.47 0.07 20.41 0.07C9.45 0.07 0.22 8.92 0.22 19.78C0.22 30.63 9.45 39.48 20.41 39.48C26.34 39.48 30.81 37.56 34.3 33.96C37.89 30.41 39 25.41 39 21.37C39 20.1 38.85 18.8 38.68 17.83L20.41 17.83L20.41 23.09L33.42 23.09C33.04 26.38 31.99 28.63 30.44 30.16C28.57 32.03 25.61 34.09 20.41 34.09Z" fill="#FFFFFF" fill-opacity="0.200000" fill-rule="nonzero"/>
	</g>
</svg>
