<svg width="36.000000" height="36.000000" viewBox="0 0 36 36" fill="none" xmlns="http://www.w3.org/2000/svg" xmlns:xlink="http://www.w3.org/1999/xlink">
	<desc>
			Created with Pixso.
	</desc>
	<defs>
		<clipPath id="clip58_2">
			<rect id="bx:bxl-instagram" width="36.000000" height="36.000000" fill="white" fill-opacity="0"/>
		</clipPath>
	</defs>
	<rect id="bx:bxl-instagram" width="36.000000" height="36.000000" fill="#FFFFFF" fill-opacity="0"/>
	<g clip-path="url(#clip58_2)">
		<path id="Vector" d="M17.99 11.06C16.15 11.06 14.39 11.79 13.09 13.09C11.79 14.39 11.06 16.16 11.06 18C11.06 19.84 11.79 21.6 13.09 22.9C14.39 24.2 16.15 24.93 17.99 24.93C19.83 24.93 21.6 24.2 22.9 22.9C24.2 21.6 24.93 19.84 24.93 18C24.93 16.16 24.2 14.39 22.9 13.09C21.6 11.79 19.83 11.06 17.99 11.06ZM17.99 22.5C16.8 22.5 15.65 22.03 14.81 21.18C13.96 20.34 13.49 19.19 13.49 17.99C13.49 16.8 13.96 15.65 14.81 14.81C15.65 13.96 16.8 13.49 17.99 13.49C19.19 13.49 20.33 13.96 21.18 14.81C22.02 15.65 22.5 16.8 22.5 17.99C22.5 19.19 22.02 20.34 21.18 21.18C20.33 22.03 19.19 22.5 17.99 22.5Z" fill="#FFFFFF" fill-opacity="0.780000" fill-rule="nonzero"/>
		<path id="Vector" d="M26.82 10.81C26.82 11.7 26.1 12.42 25.2 12.42C24.31 12.42 23.59 11.7 23.59 10.81C23.59 9.91 24.31 9.19 25.2 9.19C26.1 9.19 26.82 9.91 26.82 10.81Z" fill="#FFFFFF" fill-opacity="0.780000" fill-rule="evenodd"/>
		<path id="Vector" d="M30.79 9.16C30.45 8.26 29.92 7.45 29.24 6.77C28.56 6.09 27.74 5.56 26.85 5.21C25.8 4.82 24.69 4.61 23.57 4.58C22.12 4.52 21.66 4.5 18 4.5C14.34 4.5 13.87 4.5 12.44 4.58C11.32 4.61 10.21 4.82 9.16 5.21C8.26 5.56 7.45 6.09 6.77 6.77C6.09 7.45 5.56 8.26 5.21 9.16C4.82 10.21 4.6 11.32 4.58 12.44C4.52 13.88 4.5 14.34 4.5 18.01C4.5 21.67 4.5 22.14 4.58 23.57C4.6 24.69 4.82 25.8 5.21 26.85C5.56 27.75 6.09 28.56 6.77 29.24C7.45 29.92 8.26 30.45 9.16 30.8C10.21 31.21 11.32 31.44 12.44 31.47C13.88 31.54 14.34 31.56 18 31.56C21.67 31.56 22.14 31.56 23.57 31.47C24.69 31.45 25.8 31.24 26.85 30.85C27.74 30.5 28.56 29.97 29.24 29.29C29.92 28.61 30.45 27.79 30.8 26.9C31.19 25.85 31.4 24.74 31.43 23.62C31.49 22.17 31.51 21.72 31.51 18.05C31.51 14.39 31.51 13.92 31.43 12.49C31.41 11.35 31.19 10.23 30.79 9.16ZM28.97 23.46C28.96 24.32 28.8 25.18 28.5 25.99C28.28 26.57 27.93 27.1 27.49 27.55C27.05 27.99 26.52 28.33 25.93 28.56C25.13 28.86 24.28 29.01 23.43 29.02C22 29.09 21.6 29.11 17.95 29.11C14.29 29.11 13.92 29.11 12.46 29.02C11.61 29.01 10.76 28.86 9.96 28.56C9.38 28.33 8.84 27.99 8.4 27.55C7.96 27.11 7.61 26.58 7.38 25.99C7.09 25.19 6.93 24.34 6.92 23.49C6.85 22.06 6.84 21.66 6.84 18.01C6.84 14.35 6.84 13.98 6.92 12.52C6.93 11.66 7.08 10.8 7.38 9.99C7.84 8.81 8.78 7.88 9.96 7.43C10.76 7.13 11.61 6.97 12.46 6.96C13.89 6.9 14.29 6.88 17.95 6.88C21.6 6.88 21.98 6.88 23.43 6.96C24.28 6.97 25.13 7.13 25.93 7.43C26.52 7.65 27.05 8 27.49 8.44C27.93 8.88 28.28 9.41 28.5 9.99C28.8 10.8 28.95 11.64 28.97 12.5C29.03 13.92 29.05 14.32 29.05 17.98C29.05 21.63 29.05 22.03 28.98 23.46L28.97 23.46L28.97 23.46Z" fill="#FFFFFF" fill-opacity="0.780000" fill-rule="nonzero"/>
	</g>
</svg>
