<svg width="38.000000" height="38.000000" viewBox="0 0 38 38" fill="none" xmlns="http://www.w3.org/2000/svg" xmlns:xlink="http://www.w3.org/1999/xlink">
	<desc>
			Created with Pixso.
	</desc>
	<defs/>
	<rect id="Rectangle 220" rx="8.000000" width="38.000000" height="38.000000" fill="#FF6E30" fill-opacity="1.000000"/>
	<path id="Subtract" d="M19.96 12.43C19.63 12.43 19.3 12.47 19 12.55C19.19 10.76 19.91 9.12 20.99 7.79C25.29 8.3 28.63 11.96 28.63 16.4L28.63 22.72C28.46 22.73 28.28 22.74 28.11 22.74C24.67 22.74 21.67 20.84 20.1 18.04L23.93 18.04L23.93 16.4C23.93 14.21 22.15 12.43 19.96 12.43Z" fill="#FFFFFF" fill-opacity="1.000000" fill-rule="evenodd"/>
	<path id="Subtract" d="M9.25 16.95C9.25 11.62 13.57 7.3 18.89 7.3C21.56 7.3 23.97 8.38 25.71 10.13C24.1 8.52 21.93 7.48 19.51 7.32C17.89 9.12 16.9 11.5 16.9 14.12C16.9 14.31 16.9 14.51 16.92 14.7C16.29 15.25 15.9 16.05 15.9 16.95L15.9 17.61L21.89 17.61L17.52 17.61C18.94 21.49 22.67 24.26 27.04 24.26C27.55 24.26 28.05 24.22 28.54 24.15L28.54 28.25L21.89 28.25L21.89 24.26L15.9 24.26L15.9 28.25L9.25 28.25L9.25 20.94L9.25 16.95Z" fill="#FFFFFF" fill-opacity="1.000000" fill-rule="evenodd"/>
</svg>
