<svg width="64.000000" height="64.000000" viewBox="0 0 64 64" fill="none" xmlns="http://www.w3.org/2000/svg" xmlns:xlink="http://www.w3.org/1999/xlink">
	<desc>
			Created with Pixso.
	</desc>
	<defs>
		<clipPath id="clip43_3">
			<rect id="notion" width="64.000000" height="64.000000" fill="white" fill-opacity="0"/>
		</clipPath>
	</defs>
	<g opacity="0.780000">
		<rect id="notion" width="64.000000" height="64.000000" fill="#FFFFFF" fill-opacity="0"/>
		<g clip-path="url(#clip43_3)">
			<path id="bg" d="M11.43 58.43L4.55 49.86C2.89 47.8 2 45.26 2 42.65L2 11.63C2 7.72 5.12 4.47 9.16 4.2L41.06 2.02C43.38 1.86 45.68 2.48 47.58 3.76L58.79 11.34C60.8 12.7 62 14.92 62 17.28L62 52.56C62 56.39 58.92 59.55 54.97 59.8L19.56 61.98C16.41 62.17 13.36 60.84 11.43 58.43Z" fill="#FFFFFF" fill-opacity="1.000000" fill-rule="evenodd"/>
			<path id="vector" d="M9.44 8.11L41.34 5.93C42.74 5.83 44.12 6.2 45.26 6.98L56.47 14.55C57.39 15.18 57.94 16.2 57.94 17.28L57.94 52.56C57.94 54.32 56.53 55.77 54.71 55.89L19.3 58.07C17.49 58.18 15.74 57.41 14.63 56.03L7.75 47.46C6.65 46.08 6.05 44.39 6.05 42.65L6.05 11.63C6.05 9.77 7.53 8.24 9.44 8.11ZM11.35 11.06C10.79 11.1 10.58 11.78 11.02 12.11L15.47 15.4C16.24 15.97 17.19 16.25 18.16 16.2L50.16 14.46C50.44 14.45 50.55 14.09 50.32 13.93L44.26 9.64C43.48 9.09 42.52 8.82 41.56 8.89L11.35 11.06ZM18.58 19.7C17.5 19.76 16.66 20.62 16.66 21.66L16.66 52.08C16.66 53.21 17.64 54.1 18.81 54.03L52.42 52.12C53.49 52.06 54.33 51.2 54.33 50.17L54.33 19.62C54.33 18.61 53.45 17.8 52.4 17.86L18.58 19.7ZM22.49 26.75L22.49 27.15L25.22 27.31L25.22 47.27L24.17 47.38C23.14 47.49 22.39 48.38 22.49 49.38L30.45 49.03C31.42 48.98 32.22 48.28 32.36 47.35L32.41 47.05L29.21 46.44L29.21 31.47L39.6 47.16C40.62 48.69 42.6 49.35 44.38 48.73L46.5 48L46.5 25.59L48.2 25.3C48.68 25.22 49.04 24.82 49.04 24.34L49.04 23.33L41.99 23.69C40.92 23.74 40.07 24.6 40.07 25.64L40.07 25.84L42.83 26.2L42.83 40.04L32.12 24.27L24.38 24.79C23.32 24.86 22.49 25.72 22.49 26.75Z" fill="#000000" fill-opacity="1.000000" fill-rule="evenodd"/>
		</g>
	</g>
</svg>
